<svg xmlns="http://www.w3.org/2000/svg" viewBox="0 0 200 118.9" enable-background="new 0 0 200 118.9"><style type="text/css">.st0{fill:#FFFFFF;}</style><path class="st0" d="M20.2 82.4c-3-2.5-6.6-2.2-10.4-2.2h-8.1v24.5h7c3.8 0 7.8-.1 10.8-2.7 2.7-2.4 4.5-5.6 4.5-10.6.1-3.5-1.1-6.8-3.8-9zm-4.8 19.8c-2.9 1.5-7.4 1-10.5.9v-21.5c1.5 0 3.1-.1 4.5-.1 8 0 11.2 2.8 11.2 10.4-.1 4.4-1.4 8.4-5.2 10.3zm16.9-22v24.6c.5 0 1-.1 1.6-.1.5 0 1 .1 1.6.1v-24.6c-.6 0-1.1.1-1.6.1l-1.6-.1zm10 24.6c.4 0 .8-.1 1.3-.1.4 0 .8.1 1.3.1 1-3.4 2.3-6.5 3.6-9.7h9.1c1.4 3.3 2.7 6.7 3.8 9.7.6 0 1.2-.1 1.9-.1.6 0 1.2.1 1.9.1l-10.8-25.1h-.8l-11.3 25.1zm14.8-11.2h-7.9l3.9-9.2 4 9.2zm37.9-13.4c-3.6 6.4-6.9 12.7-10.3 18.8-3.8-6.4-7.3-13.1-10.2-18.8h-.9c-.4 3.8-2.5 18.8-3.4 24.6.4 0 .8-.1 1.3-.1.4 0 .8.1 1.3.1 0-4.4 1-11.5 1.8-18.5 2.4 4.7 5 9.3 7.2 14.1l2 4.1h.4c2.2-5 5.2-10.7 9.4-18.1.5 3.6 1.2 11.3 1.8 18.5.5 0 1.1-.1 1.7-.1.5 0 1 .1 1.7.1-1-6.9-2-15.7-2.9-24.6h-.9zm31.8 24.6l-10.8-25.1h-.8l-11.2 25.1c.4 0 .8-.1 1.3-.1.4 0 .8.1 1.3.1 1-3.4 2.3-6.5 3.6-9.7h9.1c1.4 3.3 2.7 6.7 3.8 9.7.6 0 1.2-.1 1.9-.1.5 0 1.1 0 1.8.1zm-16-11.2l3.9-9.2 4 9.2h-7.9zm43.8 11.2v-24.6c-.4 0-.7.1-1 .1-.4 0-.7-.1-1-.1v18.5h-.4l-17.1-18.5h-1.4v24.6c.3 0 .6-.1 1-.1.3 0 .6.1 1 .1v-19.4h.4l15.5 17.2c.8.8 1.5 1.7 1.9 2.2h1.1zm15-22.9v22.9c.5 0 1-.1 1.6-.1.5 0 1 .1 1.6.1v-22.9c3.2 0 5.7.2 7.5.4l-.1-1.1.1-1.1h-18.5l.1 1.1-.1 1.1c2-.2 4.2-.4 7.8-.4zm30.4 20.6c-1.1.2-2.2.3-3.3.3-2.2.1-4.3.2-6.5.1v-10.4h5.6c1.1 0 2.1.1 3.2.2 0-.4-.1-.7-.1-1l.1-.9-3.2.2h-5.6v-9h2.8l3.6.1c1.1.1 2.2.2 3.2.4l-.1-1.1.1-1.1h-12.8v24.5h13l-.1-1.1c0-.5.1-.8.1-1.2zm-195.5 7.8h-2.9v8.4h2.4c1.3 0 2.7 0 3.7-.9.9-.8 1.5-1.9 1.5-3.6 0-1.2-.4-2.3-1.3-3.1-.9-.9-2.2-.8-3.4-.8zm1.8 7.6c-1 .5-2.5.4-3.6.3v-7.3c.5 0 1-.1 1.6-.1 2.8 0 3.8 1 3.8 3.6 0 1.4-.4 2.8-1.8 3.5zm9.1.2c-.7 0-1.5.1-2.2 0v-3.6h1.9l1.1.1v-.7l-1.1.1h-1.9v-3.1h2.1l1.1.1v-.8h-4.4v8.4h4.4v-.8c-.3.3-.6.3-1 .3zm9.9-7.8l-.1.2-.7 2.1-1.3 3.3-.7 1.5h-.1l-1.5-3.7-.8-2.1c-.1-.4-.3-.8-.5-1.2h-1.2c.5 1.1 2.3 5.5 3.8 8.4h.5c.4-1.4 3.2-7.7 3.6-8.4h-.4c-.3 0-.4 0-.6-.1zm6.4 7.8c-.7 0-1.5.1-2.2 0v-3.6h1.9l1.1.1v-.7l-1.1.1h-1.9v-3.1h2.2l1.1.1v-.8h-4.4v8.4h4.4v-.8c-.3.3-.7.3-1.1.3zm7.2 0c-.7 0-1.5.1-2.2 0v-7.8h-1v8.4h4.5v-.8c-.5.1-.9.2-1.3.2zm7.8-8c-2.6 0-4.6 1.7-4.6 4.4 0 2.6 1.8 4.4 4.5 4.4 2.8 0 4.7-1.8 4.7-4.6.1-2.9-2.3-4.2-4.6-4.2zm0 8.4c-1.8 0-3.4-1.3-3.4-3.8s1.3-4.1 3.5-4.1c1 0 2 .4 2.6 1.2.6.8.8 1.7.8 2.7.1 1.3-.9 4-3.5 4zm9.4-8.2h-2.2v8.4h1v-3.9c.3 0 1.1.1 1.7 0 1.7-.3 2.6-1 2.6-2.5 0-1.4-.8-2-3.1-2zm.1 4.1h-1.2v-3.6h1.8c1 .1 1.4.7 1.4 1.6-.1 1.1-.8 1.9-2 2zm13.6-4.1c-1.2 2.2-2.4 4.4-3.5 6.5-1.3-2.2-2.5-4.5-3.5-6.5h-.3c-.1 1.3-.9 6.5-1.2 8.4h.8c0-1.5.3-4 .6-6.4l2.5 4.8.7 1.4h.1c.7-1.7 1.8-3.7 3.2-6.2.2 1.2.4 3.9.6 6.4h1.2c-.3-2.4-.7-5.4-1-8.4h-.2zm7.3 7.8c-.7 0-1.5.1-2.2 0v-3.6h1.9l1.1.1v-.7l-1.1.1h-1.9v-3.1h2.1l1.1.1v-.8h-4.4v8.4h4.5v-.8c-.4.3-.8.3-1.1.3zm10.4-7.8v6.4h-.1l-5.9-6.4h-.5v8.4h.7v-6.6h.1l5.3 5.9c.3.3.5.6.6.7h.4v-8.4h-.3c-.1.1-.2.1-.3 0zm3.1 0v.8c.7-.1 1.4-.1 2.7-.1v7.9h1v-7.9c1.1 0 2 .1 2.6.1v-.8h-6.3zm17.1.3c1.3 0 2.2.8 2.4 1.1h.1c.1-.3.1-.6.3-1-.8-.4-1.7-.6-2.7-.6-2.6 0-4.6 1.6-4.6 4.4 0 2.7 1.6 4.4 4.3 4.4.9 0 1.9-.2 2.7-.7l.1-.8c-.2.2-1.3 1-2.6 1-2 0-3.3-1.5-3.3-3.9-.1-2 1-3.9 3.3-3.9zm9.2-.5c-2.6 0-4.6 1.7-4.6 4.4 0 2.6 1.8 4.4 4.5 4.4s4.7-1.8 4.7-4.6c.1-2.9-2.3-4.2-4.6-4.2zm0 8.4c-1.8 0-3.4-1.3-3.4-3.8s1.3-4.1 3.5-4.1c1 0 1.9.4 2.6 1.2.6.8.8 1.7.8 2.7 0 1.3-.9 4-3.5 4zm12.6-.7l-2.5-3.2c1.2-.2 2.5-.9 2.5-2.3 0-1.2-.8-1.9-2.7-1.9h-2.6v8.4h1v-4.1h.5l1 1.2 1.5 1.9c.3.3.5.7.8 1.1h1.4l-.2-.3-.7-.8zm-4.2-3.6v-3.4c.5 0 1.4-.1 1.8 0 .9.1 1.4.7 1.4 1.5 0 1-.7 1.6-1.6 1.8-.7.1-1.5.1-1.6.1zm9.5-3.9h-2.2v8.4h1v-3.9c.3 0 1.1.1 1.7 0 1.7-.3 2.6-1 2.6-2.5 0-1.4-.7-2-3.1-2zm.1 4.1h-1.2v-3.6h1.8c1 .1 1.4.7 1.4 1.6-.1 1.1-.8 1.9-2 2zm9.6-4.3c-2.5 0-4.6 1.7-4.6 4.4 0 2.6 1.8 4.4 4.5 4.4s4.7-1.8 4.7-4.6c.1-2.9-2.3-4.2-4.6-4.2zm0 8.4c-1.8 0-3.4-1.3-3.4-3.8s1.3-4.1 3.5-4.1c1 0 1.9.4 2.6 1.2.6.8.8 1.7.8 2.7 0 1.3-.9 4-3.5 4zm12.6-.7l-2.5-3.2c1.2-.2 2.5-.9 2.5-2.3 0-1.2-.8-1.9-2.7-1.9h-2.6v8.4h1v-4.1h.5l1 1.2 1.5 1.9c.3.3.5.7.8 1.1h1.4l-.2-.3-.7-.8zm-4.2-3.6v-3.4c.5 0 1.4-.1 1.8 0 .9.1 1.4.7 1.4 1.5 0 1-.7 1.6-1.6 1.8-.7.1-1.5.1-1.6.1zm10.3-4.1l-3.8 8.6h.9c.3-1.2.8-2.2 1.2-3.3h3.1c.5 1.1.9 2.3 1.3 3.3h1.2999999999999998l-3.7-8.6h-.3zm-1.5 4.8l1.3-3.2 1.4 3.2h-2.7zm6-4.6v.8c.7-.1 1.5-.1 2.7-.1v7.9h1v-7.9c1.1 0 2 .1 2.6.1v-.8h-6.3zm8.8 0v8.4h1v-8.4h-.5c-.2.1-.3.1-.5 0zm8.3-.2c-2.6 0-4.6 1.7-4.6 4.4 0 2.6 1.8 4.4 4.5 4.4 2.8 0 4.7-1.8 4.7-4.6.1-2.9-2.3-4.2-4.6-4.2zm0 8.4c-1.8 0-3.4-1.3-3.4-3.8s1.3-4.1 3.5-4.1c1 0 1.9.4 2.6 1.2.6.8.8 1.7.8 2.7 0 1.3-.9 4-3.5 4zm13.9-8.2v6.4h-.1l-5.8-6.4h-.5v8.4h.6v-6.6h.1l5.3 5.9c.3.3.5.6.6.7h.4v-8.4h-.3c-.1.1-.2.1-.3 0zm-165.6-42.6h1.5c0-18.3 14.8-33.1 33.1-33.1v-1.6c-18.3.1-33.1-14.7-33.1-33h-1.5c0 18.3-14.8 33.1-33.1 33.1v1.6c18.3-.1 33.1 14.8 33.1 33z"/></svg>